{"title":"Jugni (2016) 720p x264 AAC 5.1 MSubs -DDR","uid":15711459,"size":2206139482,"categoryP":"video","categoryS":"hd___movies","magnet":"?xt=urn:btih:edd9bc3bbf788053106e37c4954089dd14ec0dcf&amp;dn=Jugni+%282016%29+720p+x264+AAC+5.1+MSubs+-DDR&amp;tr=udp%3A%2F%2Ftracker.leechers-paradise.org%3A6969&amp;tr=udp%3A%2F%2Fzer0day.ch%3A1337&amp;tr=udp%3A%2F%2Fopen.demonii.com%3A1337&amp;tr=udp%3A%2F%2Ftracker.coppersurfer.tk%3A6969&amp;tr=udp%3A%2F%2Fexodus.desync.com%3A6969","seeders":9,"leechers":11,"uploader":"SaM","files":4,"time":1472578374,"description":"** JUGNI **\r\n\r\n** 2016**\r\n** 720p / x264 / AAC 5.1 **\r\n\r\n** English &amp; French Subtitle(s) **\r\n\r\n\r\n\r\n[ SCREENS ]\r\n \nhttp://extraimago.com/image/wqKe \nhttp://extraimago.com/image/wqKZ \nhttp://extraimago.com/image/wqKK \nhttp://extraimago.com/image/wqKJ \nhttp://extraimago.com/image/wqK0 \nhttp://extraimago.com/image/wqKz \nhttp://extraimago.com/image/wqKU \nhttp://extraimago.com/image/wqKM \nhttp://extraimago.com/image/wqK9 \nhttp://extraimago.com/image/wqK3 \nhttp://extraimago.com/image/wqKb \nhttp://extraimago.com/image/wqKh \nhttp://extraimago.com/image/wqKd \nhttp://extraimago.com/image/wqKI \nhttp://extraimago.com/image/wqKl\r\n\r\n[ Info ]\r\n\r\nSource : DDR HDFury Netflix recording \r\n\r\nFile size : 2.02 GiB\r\nDuration : 1 h 47 min\r\nOverall bit rate : 2 694 kb/s\r\n\r\nVideo\r\nFormat : AVC\r\nFormat/Info : Advanced Video Codec\r\nFormat profile :   \r\nFormat settings, CABAC : Yes\r\nFormat settings, ReFrames : 12 frames\r\nCodec ID : V_MPEG4/ISO/AVC\r\nDuration : 1 h 47 min\r\nBit rate : 2 500 kb/s\r\nWidth : 1 280 pixels\r\nHeight : 544 pixels\r\nDisplay aspect ratio : 2.35:1\r\nFrame rate mode : Constant\r\nFrame rate : 24.000 FPS\r\ncolor space : YUV\r\nChroma subsampling : 4:2:0\r\nBit depth : 8 bits\r\nScan type : Progressive\r\nBits/(Pixel*Frame) : 0.150\r\nStream size : 1.88 GiB (93%)\r\nDefault : Yes\r\nForced : No\r\ncolor range : Limited\r\ncolor primaries : BT.709\r\n\r\nAudio\r\nFormat : AAC\r\nFormat/Info : Advanced Audio Codec\r\nFormat profile : LC\r\nCodec ID : A_AAC\r\nDuration : 1 h 47 min\r\nBit rate : 192 kb/s\r\nChannel(s) : 6 channels\r\nChannel positions : Front: L C R, Side: L R, LFE\r\nSampling rate : 48.0 kHz\r\nFrame rate : 46.875 FPS (1024 spf)\r\nCompression mode : Lossy\r\nDelay relative to video : 9 ms\r\nStream size : 147 MiB (7%)\r\nLanguage : Hindi\r\nDefault : Yes\r\nForced : No\r\n\r\nChapters = YES","torrent":{"xt":"urn:btih:edd9bc3bbf788053106e37c4954089dd14ec0dcf","amp;dn":"Jugni+%282016%29+720p+x264+AAC+5.1+MSubs+-DDR","amp;tr":["udp%3A%2F%2Ftracker.leechers-paradise.org%3A6969","udp%3A%2F%2Fzer0day.ch%3A1337","udp%3A%2F%2Fopen.demonii.com%3A1337","udp%3A%2F%2Ftracker.coppersurfer.tk%3A6969","udp%3A%2F%2Fexodus.desync.com%3A6969"],"infoHash":"edd9bc3bbf788053106e37c4954089dd14ec0dcf","infoHashBuffer":{"type":"Buffer","data":[237,217,188,59,191,120,128,83,16,110,55,196,149,64,137,221,20,236,13,207]},"announce":[],"urlList":[]}}